<svg xmlns="http://www.w3.org/2000/svg" width="1792" height="1792" viewBox="0 0 1792 1792" version="1.1"><path d="M 938.500 129.475 C 917.237 134.015, 902.406 141.062, 885.308 154.752 C 881.014 158.191, 728.260 310.066, 545.855 492.252 C 239.121 798.618, 213.746 824.214, 208.041 833 C 191.328 858.743, 185.345 880.235, 186.328 911 C 187.275 940.636, 194.999 962.244, 212.603 984.500 C 216.083 988.900, 368.234 1141.961, 550.715 1324.635 C 846.984 1621.216, 883.451 1657.390, 891.388 1662.570 C 908.834 1673.956, 924.667 1680.377, 943.276 1683.613 C 956.169 1685.854, 983.021 1685.056, 995 1682.075 C 1006.636 1679.179, 1020.303 1673.792, 1028.587 1668.834 C 1044.247 1659.464, 1052.855 1651.332, 1122.091 1580.500 C 1151.086 1550.838, 1158.075 1539.647, 1165.201 1511.475 C 1167.194 1503.596, 1167.472 1499.998, 1167.477 1482 C 1167.483 1463.056, 1167.281 1460.703, 1164.812 1451 C 1160.275 1433.169, 1153.903 1419.836, 1143.545 1406.500 C 1140.982 1403.200, 1071.150 1332.442, 988.363 1249.259 L 837.842 1098.019 1200.171 1097.756 L 1562.500 1097.493 1572 1094.749 C 1592.518 1088.824, 1610.521 1077.572, 1624.663 1061.835 C 1644.766 1039.463, 1655.392 1014.139, 1657.964 982.472 C 1659.288 966.159, 1659.306 845.220, 1657.985 830 C 1655.181 797.666, 1645.270 773.650, 1625.236 750.642 C 1611.639 735.026, 1592.218 722.960, 1571.500 717.254 L 1561.500 714.500 1199.516 714.242 L 837.532 713.984 988.120 563.242 C 1070.943 480.334, 1140.713 409.800, 1143.163 406.500 C 1160.044 383.768, 1167.992 359.279, 1167.992 330 C 1167.992 298.323, 1158.975 272.852, 1139.183 248.624 C 1131.818 239.607, 1051.406 160.591, 1042.089 153.215 C 1026.235 140.662, 1007.089 132.178, 986.500 128.579 C 972.775 126.181, 952.128 126.566, 938.500 129.475" stroke="none" fill="white" fill-rule="evenodd"/></svg>